<svg xmlns="http://www.w3.org/2000/svg" version="1.1" xmlnsXlink="http://www.w3.org/1999/xlink" xmlnsSvgjs="http://svgjs.dev/svgjs" width="2000" height="2024" viewBox="0 0 2000 2024"><g transform="matrix(1,0,0,1,-2.3209795918368172,-3.2645161290323585)"><svg viewBox="0 0 245 248" data-background-color="#fafafa" preserveAspectRatio="xMidYMid meet" height="2024" width="2000" xmlns="http://www.w3.org/2000/svg" xmlnsXlink="http://www.w3.org/1999/xlink"><g id="tight-bounds" transform="matrix(1,0,0,1,0.2843200000000081,0.4000000000000057)"><svg viewBox="0 0 244.43135999999998 247.2" height="247.2" width="244.43135999999998"><g><svg></svg></g><g><svg viewBox="0 0 244.43135999999998 247.2" height="247.2" width="244.43135999999998"><g transform="matrix(1,0,0,1,0,68.98015288888888)"><svg viewBox="0 0 244.43135999999998 109.23969422222223" height="109.23969422222223" width="244.43135999999998"><g><svg viewBox="0 0 244.43135999999998 109.23969422222223" height="109.23969422222223" width="244.43135999999998"><g><svg viewBox="0 0 244.43135999999998 109.23969422222223" height="109.23969422222223" width="244.43135999999998"><g><svg viewBox="0 0 244.43135999999998 109.23969422222223" height="109.23969422222223" width="244.43135999999998"><g id="textblocktransform"><svg viewBox="0 0 244.43135999999998 109.23969422222223" height="109.23969422222223" width="244.43135999999998" id="textblock"><g><svg viewBox="0 0 244.43135999999998 109.23969422222223" height="109.23969422222223" width="244.43135999999998"><g transform="matrix(1,0,0,1,0,0)"><svg width="244.43135999999998" viewBox="4.5 -35.6 81 36.2" height="109.23969422222223" data-palette-color="#130912"><path d="M29.55-2.8L26.25 0.6 9.25-16.1 9.25 0 4.5 0 4.5-35 9.25-35 9.25-19.05 24.15-35.15 27.35-32.2 13.7-18 29.55-2.8ZM59.6-2.8L56.3 0.6 39.3-16.1 39.3 0 34.55 0 34.55-35 39.3-35 39.3-19.05 54.2-35.15 57.4-32.2 43.75-18 59.6-2.8ZM72.8 0.6L72.8 0.6Q69.14 0.6 66.14-0.38 63.14-1.35 61.09-2.95L61.09-2.95 63.49-6.95Q65.3-5.45 67.55-4.5 69.8-3.55 72.8-3.55L72.8-3.55Q76.39-3.55 78.5-5.05 80.59-6.55 80.59-9.1L80.59-9.1Q80.59-10.55 80-11.68 79.39-12.8 77.67-13.88 75.94-14.95 72.59-16.2L72.59-16.2Q69-17.6 66.84-19.03 64.69-20.45 63.77-22.28 62.84-24.1 62.84-26.6L62.84-26.6Q62.84-29.1 64.22-31.13 65.59-33.15 68.27-34.38 70.94-35.6 74.75-35.6L74.75-35.6Q77.84-35.6 80.32-34.98 82.8-34.35 85.14-33.2L85.14-33.2 83.39-29.15Q81.69-30.15 79.42-30.83 77.14-31.5 74.64-31.5L74.64-31.5Q71.34-31.5 69.44-30.2 67.55-28.9 67.55-26.85L67.55-26.85Q67.55-25.55 68.09-24.55 68.64-23.55 70.27-22.6 71.89-21.65 75.14-20.45L75.14-20.45Q79.05-19 81.32-17.4 83.59-15.8 84.55-13.93 85.5-12.05 85.5-9.65L85.5-9.65Q85.5-6.4 83.87-4.1 82.25-1.8 79.37-0.6 76.5 0.6 72.8 0.6Z" opacity="1" transform="matrix(1,0,0,1,0,0)" fill="#ffffff" class="wordmark-text-0" data-fill-palette-color="primary" id="text-0"></path></svg></g></svg></g></svg></g></svg></g><g></g></svg></g></svg></g></svg></g><path d="M0 62.98L0 1 244.431 1 244.431 62.98 234.58 62.98 234.58 10.851 9.851 10.851 9.851 62.98 0 62.98M0 184.22L0 246.2 244.431 246.2 244.431 184.22 234.58 184.22 234.58 236.349 9.851 236.349 9.851 184.22 0 184.22" fill="#ffffff" stroke="transparent" data-fill-palette-color="tertiary"></path></svg></g><defs></defs></svg><rect width="244.43135999999998" height="247.2" fill="none" stroke="none" visibility="hidden"></rect></g></svg></g></svg>